HIERARCHY
ROOT Hips
{
	OFFSET -3.958830 18.904000 13.208200
	CHANNELS 6 Xposition Yposition Zposition Zrotation Yrotation Xrotation 
	JOINT LHipJoint
	{
		OFFSET 0.000000 0.000000 0.000000
		CHANNELS 3 Zrotation Yrotation Xrotation
		JOINT LeftUpLeg
		{
			OFFSET 1.800000 -1.400000 0.085000
			CHANNELS 3 Zrotation Yrotation Xrotation
			JOINT LeftLeg
			{
				OFFSET 2.215000 -6.000000 0.000000
				CHANNELS 3 Zrotation Yrotation Xrotation
				JOINT LeftFoot
				{
					OFFSET 2.500000 -6.900000 0.000000
					CHANNELS 3 Zrotation Yrotation Xrotation
					JOINT LeftToeBase
					{
						OFFSET 0.200000 -0.500000 1.950000
						CHANNELS 3 Zrotation Yrotation Xrotation
						End Site
						{
							OFFSET 0.000000 0.000000 0.000000
						}
					}
				}
			}
		}
	}
	JOINT RHipJoint
	{
		OFFSET 0.000000 0.000000 0.000000
		CHANNELS 3 Zrotation Yrotation Xrotation
		JOINT RightUpLeg
		{
			OFFSET -1.800000 -1.400000 0.085000
			CHANNELS 3 Zrotation Yrotation Xrotation
			JOINT RightLeg
			{
				OFFSET -2.215000 -6.000000 0.000000
				CHANNELS 3 Zrotation Yrotation Xrotation
				JOINT RightFoot
				{
					OFFSET -2.500000 -6.900000 0.000000
					CHANNELS 3 Zrotation Yrotation Xrotation
					JOINT RightToeBase
					{
						OFFSET -0.200000 -0.500000 1.950000
						CHANNELS 3 Zrotation Yrotation Xrotation
						End Site
						{
							OFFSET 0.000000 0.000000 0.000000
						}
					}
				}
			}
		}
	}
	JOINT LowerBack
	{
		OFFSET 0.000000 0.000000 0.000000
		CHANNELS 3 Zrotation Yrotation Xrotation
		JOINT Spine
		{
			OFFSET -0.087000 1.940000 -0.288900
			CHANNELS 3 Zrotation Yrotation Xrotation
			JOINT Spine1
			{
				OFFSET 0.000000 1.950000 0.060000
				CHANNELS 3 Zrotation Yrotation Xrotation
				JOINT Neck
				{
					OFFSET 0.000000 0.000000 0.000000
					CHANNELS 3 Zrotation Yrotation Xrotation
					JOINT Neck1
					{
						OFFSET 0.000000 1.600000 0.340000
						CHANNELS 3 Zrotation Yrotation Xrotation
						JOINT Head
						{
							OFFSET 0.000000 1.667000 -0.240000
							CHANNELS 3 Zrotation Yrotation Xrotation
							End Site
							{
								OFFSET 0.000000 0.000000 0.000000
							}
						}
					}
				}
				JOINT LeftShoulder
				{
					OFFSET 0.000000 0.000000 0.000000
					CHANNELS 3 Zrotation Yrotation Xrotation
					JOINT LeftArm
					{
						OFFSET 2.700000 1.550000 -0.730000
						CHANNELS 3 Zrotation Yrotation Xrotation
						JOINT LeftForeArm
						{
							OFFSET 5.450000 0.000000 0.000000
							CHANNELS 3 Zrotation Yrotation Xrotation
							JOINT LeftHand
							{
								OFFSET 3.450000 0.000000 0.000000
								CHANNELS 3 Zrotation Yrotation Xrotation
								JOINT LeftHandIndex1
								{
									OFFSET 0.750000 0.000000 0.000000
									CHANNELS 3 Zrotation Yrotation Xrotation
									End Site
									{
										OFFSET 0.000000 0.000000 0.000000
									}
								}
							}
						}
					}
				}
				JOINT RightShoulder
				{
					OFFSET 0.000000 0.000000 0.000000
					CHANNELS 3 Zrotation Yrotation Xrotation
					JOINT RightArm
					{
						OFFSET -2.700000 1.550000 -0.730000
						CHANNELS 3 Zrotation Yrotation Xrotation
						JOINT RightForeArm
						{
							OFFSET -5.450000 0.000000 0.000000
							CHANNELS 3 Zrotation Yrotation Xrotation
							JOINT RightHand
							{
								OFFSET -3.450000 0.000000 0.000000
								CHANNELS 3 Zrotation Yrotation Xrotation
								JOINT RightHandIndex1
								{
									OFFSET -0.750000 0.000000 0.000000
									CHANNELS 3 Zrotation Yrotation Xrotation
									End Site
									{
										OFFSET 0.000000 0.000000 0.000000
									}
								}
							}
						}
					}
				}
			}
		}
	}
}
MOTION
Frames: 7
Frame Time: 0.016667
-7.747940 16.509180 6.258440 -1.595273 15.674262 -0.379282 -15.130610 12.828091 3.454168 -0.710327 -0.825584 -5.160770 -7.367834 3.729743 0.639404 -1.136036 3.987656 3.386977 0.641020 -0.075480 0.462050 18.259155 -11.290337 3.048922 -1.070506 -1.001333 -0.578134 2.189735 -4.640178 7.917939 -0.633060 -3.799976 3.291346 0.152640 0.162450 0.185860 -3.961314 -0.438578 -8.212823 10.386412 0.648128 15.763434 -2.999217 2.799958 5.204804 1.294902 1.266947 -12.784483 0.068926 -10.351604 37.652031 16.541500 -11.057050 -31.361340 -21.884857 -17.097556 6.919252 -34.961707 -5.018050 3.470938 -113.120868 -49.825750 60.453440 -3.490972 3.219548 1.346760 -0.183000 0.040220 0.216420 18.872047 19.199444 9.245422 38.129741 8.667825 -2.118433 92.983008 45.605674 35.768539 1.801533 -1.613266 -0.556080 0.446500 0.076010 -0.525330 
-7.750660 16.501210 6.262110 -1.393288 16.642261 0.289309 -15.153684 12.831820 3.448822 -0.947024 -0.954048 -5.819521 -7.398974 3.705842 0.671032 -1.236927 4.079744 3.392475 0.575760 -0.184170 0.444440 18.247988 -11.242755 3.017954 -1.145192 -0.887815 -0.997896 2.300535 -4.630940 7.827825 -0.574510 -3.802739 3.301714 0.145260 0.254620 0.186330 -3.931925 -0.544553 -8.153458 10.180014 0.857589 14.645634 -2.943038 2.841550 5.001762 1.435759 0.731152 -12.366222 -0.800103 -9.353319 36.440124 13.407910 -10.666020 -28.737140 -22.323653 -16.181239 6.426539 -33.518762 -4.739173 4.132072 -115.030803 -48.812229 61.527511 -3.588220 3.168869 1.348400 -0.107820 -0.027980 0.203750 19.088165 18.473728 9.066165 37.050643 7.909069 -1.512272 95.164050 44.424920 36.480433 1.746625 -1.606767 -0.644020 0.512120 0.142590 -0.553060 
-7.755250 16.493880 6.261710 -0.950918 17.499625 0.911600 -15.187978 12.840469 3.454175 -1.478455 -1.056796 -6.334188 -7.263950 3.671425 0.696002 -1.320116 4.139079 3.413659 0.501890 -0.290560 0.426400 18.223369 -11.190865 2.987842 -1.590296 -0.789224 -1.300367 2.810749 -4.694818 7.549987 -0.514753 -3.824671 3.318830 0.130560 0.341910 0.168930 -3.862862 -0.674233 -8.108035 9.510569 1.218526 13.630684 -2.717740 3.012186 4.958070 1.518213 0.259542 -12.223911 -1.592226 -8.089885 35.905381 10.458020 -9.885030 -25.838700 -22.520047 -15.681886 6.113363 -32.214586 -4.584510 4.525123 -116.108478 -48.245429 62.167005 -3.681889 3.096469 1.343920 -0.033030 -0.097660 0.186880 19.237627 18.147124 9.156189 36.136266 6.991874 -1.213570 96.912860 44.037892 37.429997 1.708452 -1.585342 -0.732060 0.576690 0.199110 -0.580170 
-7.763130 16.488740 6.258180 -0.676184 18.189188 1.188162 -15.209469 12.878631 3.468021 -1.648409 -1.099730 -6.541852 -7.302441 3.683313 0.585498 -1.354795 4.193548 3.432387 0.428490 -0.379960 0.400260 18.206072 -11.125877 2.978274 -1.726390 -0.761668 -1.323199 3.037319 -4.701612 7.317913 -0.466982 -3.819062 3.349292 0.108730 0.406880 0.119980 -3.823389 -0.873919 -8.107047 9.207254 1.377487 13.226286 -2.575097 3.145958 4.799384 1.362895 -0.702272 -12.204118 -3.397648 -6.301236 36.250982 9.325520 -9.005980 -23.844810 -22.466585 -15.108482 5.906395 -31.274255 -4.324731 4.680015 -117.036859 -48.118137 63.032208 -3.732572 3.021432 1.340480 0.004180 -0.155470 0.172140 19.625219 18.075488 9.299211 34.808353 6.154369 -1.025499 98.058851 43.885596 38.325652 1.700540 -1.548374 -0.809380 0.641910 0.239390 -0.595440 
-7.767040 16.484920 6.253510 -0.600275 18.924482 1.496104 -15.207904 12.892345 3.467101 -1.704559 -1.161310 -6.881415 -7.365258 3.678601 0.489304 -1.367339 4.205475 3.450221 0.385210 -0.426490 0.372040 18.216515 -11.069555 2.978144 -1.534213 -0.751368 -1.387497 3.103602 -4.662353 7.092532 -0.429838 -3.810474 3.376974 0.098760 0.451230 0.086850 -3.858330 -1.011931 -8.094058 9.486516 1.453806 12.727141 -2.800785 3.240048 4.602264 1.184091 -1.682379 -12.105510 -5.205380 -4.537144 36.258288 8.804820 -8.168130 -22.086260 -22.435503 -14.412141 5.672736 -30.303147 -4.113048 4.808304 -117.593599 -48.266521 63.947904 -3.764417 2.991518 1.320360 0.033150 -0.200840 0.169420 20.012665 17.829322 9.342531 33.529603 5.415241 -0.751695 98.509866 43.718240 38.849115 1.694788 -1.542157 -0.849590 0.673380 0.259540 -0.596880 
-7.777640 16.483400 6.245050 -0.078820 19.528665 1.788967 -15.233964 12.910545 3.484578 -2.258563 -1.224012 -7.039140 -7.164956 3.635420 0.433616 -1.402395 4.205317 3.464394 0.360610 -0.465560 0.365470 18.198312 -11.019443 2.953085 -1.876807 -0.707982 -1.453031 3.356031 -4.683084 6.944149 -0.401965 -3.815449 3.386649 0.095920 0.480950 0.061020 -3.805644 -1.160894 -8.067778 8.814068 1.687753 12.510783 -2.668791 3.422645 4.505105 1.022210 -2.486812 -11.993070 -6.634997 -2.690233 36.116782 8.480920 -7.003220 -21.010240 -22.147414 -13.629318 5.463825 -29.314923 -3.758323 4.760064 -117.755624 -48.921209 64.961995 -3.787801 2.965925 1.324730 0.049910 -0.236660 0.163220 20.181811 17.514535 9.271032 32.119721 5.057867 -0.522220 98.537200 44.103481 39.646408 1.686562 -1.530344 -0.893500 0.698180 0.277670 -0.613030 
-7.778820 16.487880 6.230590 0.093693 20.144213 1.840107 -15.241828 12.952478 3.493185 -2.624381 -1.283952 -7.175444 -6.757241 3.572871 0.509964 -1.388419 4.141446 3.486507 0.389200 -0.443070 0.391760 18.193074 -10.968036 2.952279 -1.931758 -0.705852 -1.383340 3.506996 -4.663604 6.777680 -0.410963 -3.805945 3.379676 0.100420 0.459000 0.054930 -3.807314 -1.335169 -8.066067 8.974103 1.662645 12.671196 -2.839979 3.461480 4.220924 0.926958 -3.504871 -11.954787 -8.533100 -0.887421 36.075171 8.540590 -5.968340 -20.603980 -22.105404 -12.771154 5.262502 -28.146485 -3.186378 4.546654 -116.924664 -49.705746 65.153684 -3.757676 3.000288 1.319790 0.029200 -0.233100 0.172420 20.397972 17.272400 9.260010 30.198449 4.515658 -0.393975 98.588147 44.830745 40.784297 1.708605 -1.558187 -0.879740 0.676790 0.250620 -0.614520 
